PathFileType	4	(X/Y/Z)	E:\Qualisys_Data\Carbon_Farble_Plate\Data\Amateur_Runner\S14\T1\S14T1V24_c3d.trc
DataRate	CameraRate	NumFrames	NumMarkers	Units	OrigDataRate	OrigDataStartFrame	OrigNumFrames
200.000000	200.000000	4	39	mm	200.000000	157	314
Frame#	Time	LSHO			RSHO			LICST			RICST			LASIS			LHEEL			RASIS			LTROC			RTROC			SACR			LTH1			LSK4			LTH2			LTH3			RHM5			LSK2			LTH4			RTH1			LTOE			RTH2			RTH3			RTH4			LLEP			RLEP			LSK1			LSK3			RSK1			LHM5			RSK2			LFT1			RSK3			RSK4			LLME			RLME			RTOE			RHEEL			RFT1			RFT2			LFT2			
		X1	Y1	Z1	X2	Y2	Z2	X3	Y3	Z3	X4	Y4	Z4	X5	Y5	Z5	X6	Y6	Z6	X7	Y7	Z7	X8	Y8	Z8	X9	Y9	Z9	X10	Y10	Z10	X11	Y11	Z11	X12	Y12	Z12	X13	Y13	Z13	X14	Y14	Z14	X15	Y15	Z15	X16	Y16	Z16	X17	Y17	Z17	X18	Y18	Z18	X19	Y19	Z19	X20	Y20	Z20	X21	Y21	Z21	X22	Y22	Z22	X23	Y23	Z23	X24	Y24	Z24	X25	Y25	Z25	X26	Y26	Z26	X27	Y27	Z27	X28	Y28	Z28	X29	Y29	Z29	X30	Y30	Z30	X31	Y31	Z31	X32	Y32	Z32	X33	Y33	Z33	X34	Y34	Z34	X35	Y35	Z35	X36	Y36	Z36	X37	Y37	Z37	X38	Y38	Z38	X39	Y39	Z39	

158	0.785	395.2669982910156	1458.7001953125	-517.285400390625	350.8170471191406	1462.664306640625	-233.2595672607422	359.2839965820312	1002.882629394531	-506.6144714355469	367.2944641113281	1001.525756835938	-234.8179473876953	389.5138854980469	947.5890502929688	-482.7550659179688	-246.9225311279297	525.6865844726562	-370.4729309082031	390.2528991699219	957.5805053710938	-255.4692535400391	225.5260620117188	907.5587158203124	-528.4644775390625	251.5386199951172	910.5005493164062	-201.6506958007812	224.6850280761719	1018.784790039062	-377.2163391113281	227.7103576660156	670.7252197265625	-529.5667724609375	-75.21243286132812	543.5066528320312	-467.317138671875	156.3115234375	697.0604858398438	-504.5159301757812	202.6620941162109	575.1400146484375	-511.7833251953125	648.1445922851562	111.9501266479492	-215.9325256347656	18.87826347351074	561.3280639648438	-493.7000122070312	129.3323822021484	603.2103881835938	-489.097900390625	446.3562316894531	699.1536865234375	-206.4102172851562	-306.0024108886719	277.6372680664062	-420.9046630859375	373.721435546875	672.1677856445312	-190.3509063720703	480.6583251953125	608.4593505859375	-235.6222534179688	404.0718994140625	576.8143920898438	-213.2771911621094	141.0925140380859	530.6266479492188	-503.8528137207031	455.4908142089844	524.2432861328125	-224.8045959472656	34.17422103881836	480.3641967773438	-497.3819885253906	-64.10939025878906	463.5206604003906	-474.5071105957031	499.3076171875	411.26513671875	-221.427001953125	-320.213623046875	354.5602416992188	-468.1881713867188	415.6322326660156	394.0675659179688	-220.2737579345703	-266.0920104980469	512.0894165039062	-339.9918823242188	513.6154174804688	309.3645629882812	-231.1941223144531	435.114501953125	299.9992065429688	-230.7755279541016	-238.0972137451172	479.1145324707031	-438.1891784667969	506.2653198242188	126.8500823974609	-248.1461639404297	713.6596069335938	151.4430999755859	-273.8544006347656	464.3216857910156	79.80101776123047	-304.1489562988281	489.9731140136719	59.28961563110352	-334.0309143066406	473.4886779785156	56.47349548339844	-277.4276733398438	-276.9447631835938	532.6337890625	-391.0015869140625
159	0.79	414.4871826171875	1455.900634765625	-516.5995483398438	370.7073059082031	1459.080688476562	-232.2943725585938	379.2486877441406	999.7083740234376	-506.6161804199219	386.6717224121094	999.274169921875	-234.8798065185547	409.7088317871094	944.89453125	-482.6035766601562	-221.9166412353516	535.9955444335938	-371.1751098632812	409.7796325683594	954.7745971679688	-254.9761962890625	246.0528564453125	903.845703125	-529.4116821289062	271.4087524414062	907.106201171875	-202.0292205810547	244.278564453125	1015.572387695312	-377.350830078125	251.1797637939453	666.4069213867188	-529.571533203125	-49.67874145507812	546.3111572265625	-468.4876098632812	178.8256683349609	691.843017578125	-505.1831665039062	226.7095947265625	570.72705078125	-512.0936279296875	666.6471557617188	108.9168243408203	-217.2500152587891	45.16067123413086	560.5057983398438	-495.2384948730469	152.8643035888672	598.2293701171875	-489.6414794921875	464.5591430664062	695.831787109375	-205.7334289550781	-288.4947814941406	289.3688354492188	-420.1777648925781	391.6935729980469	668.3612060546875	-190.5099029541016	499.349365234375	605.6727294921875	-236.3022308349609	422.6495361328125	574.1696166992188	-213.7282104492188	165.2483215332031	526.996337890625	-504.5435180664062	474.1561584472656	521.0194702148438	-225.2537689208984	57.43228149414062	478.4505310058594	-496.9656677246094	-41.27719879150391	466.0427551269531	-474.4237060546875	517.8460083007812	407.8023986816406	-221.9338684082031	-299.999755859375	366.5906982421875	-467.4752197265625	433.8591918945312	390.4658813476562	-221.6588745117188	-241.3352661132812	523.3014526367188	-340.5040893554688	532.3515625	305.4636840820312	-232.7167053222656	453.3369750976562	296.20654296875	-232.4684906005859	-213.8898620605469	488.4403991699219	-438.5074157714844	524.8573608398438	123.2924041748047	-250.06689453125	732.0637817382812	148.4341125488281	-274.6549682617188	483.0740051269531	76.31486511230469	-306.240966796875	509.0889892578125	56.20553588867188	-335.9211120605469	492.0227661132812	53.00194549560547	-279.7210693359375	-251.0734558105469	543.692138671875	-392.1947937011719
160	0.795	433.7550048828125	1452.605346679688	-515.983642578125	390.2985229492188	1455.074340820312	-231.5058898925781	399.2376403808594	996.6727294921876	-506.6704406738281	405.8760681152344	996.43798828125	-234.5004272460938	429.8947448730469	941.9500122070312	-482.3694152832031	-195.0090637207031	545.8837280273438	-370.0100402832031	429.0804748535156	952.0519409179688	-254.9288024902344	266.830322265625	900.1171875	-530.4093017578125	290.7157287597656	904.0291748046876	-201.9636993408203	263.8939514160156	1011.907287597656	-377.9361572265625	274.5918884277344	661.8052978515625	-529.5895385742188	-23.1868782043457	548.5588989257812	-469.5087585449219	201.9106597900391	686.5104370117188	-505.8134765625	251.0694580078125	566.244384765625	-512.5958862304688	683.7239990234375	104.5690155029297	-218.8603363037109	72.02632904052734	558.5715942382812	-496.3995971679688	176.9954833984375	592.488037109375	-490.4213562011719	483.4769287109375	692.6371459960938	-204.8516693115234	-269.4426879882812	301.3377685546875	-418.1986083984375	409.7386474609375	665.215087890625	-191.0848083496094	518.03662109375	603.0203857421875	-236.3430480957031	441.53271484375	571.0676879882812	-214.8116455078125	191.0267944335938	520.7643432617188	-504.82177734375	493.0790710449219	517.8811645507812	-225.7418212890625	81.8390884399414	476.5242919921875	-497.5552368164062	-17.82312393188477	467.4676208496094	-473.9116821289062	536.0254516601562	403.8177185058594	-222.9736022949219	-279.1015319824219	378.1846313476562	-467.5630798339844	452.0779113769531	387.0801391601562	-222.4370880126953	-215.6853179931641	533.6394653320312	-341.6613159179688	549.9337158203125	301.5668334960938	-233.8038177490234	471.0171203613281	292.6643371582031	-233.817138671875	-189.1110382080078	497.0751953125	-438.7850341796875	541.6467895507812	119.5343551635742	-251.8633880615234	749.2006225585938	144.6955261230469	-275.7616271972656	500.4042358398438	72.85741424560547	-308.1852111816406	526.3301391601562	52.47571182250977	-338.0765991210938	509.2909240722656	49.43502807617188	-281.8202209472656	-224.4549102783203	554.2615966796875	-393.1171264648438
161	0.8	452.9053344726562	1449.21826171875	-515.5541381835938	410.0362243652344	1450.895385742188	-230.5959167480469	419.0493774414062	993.11572265625	-506.5493774414062	425.5801696777344	993.47607421875	-234.2323455810547	449.666748046875	938.7090454101562	-482.2544860839844	-167.9740905761719	555.2515869140625	-370.3159484863281	448.2319641113281	949.0848999023438	-254.5140686035156	287.3633117675781	895.792724609375	-531.2116088867188	310.0463256835938	900.8043212890624	-202.3145904541016	283.0054016113281	1008.091186523438	-378.2904357910156	298.4273376464844	657.1116333007812	-530.7515258789062	3.664588928222656	550.2974853515625	-470.5586853027344	224.8396606445312	680.728271484375	-506.4887084960938	275.8168029785156	560.923828125	-512.5166625976562	699.4637451171875	99.60030364990234	-220.7147827148438	99.25437927246094	556.6488037109375	-497.3578491210938	200.9228210449219	586.7279052734375	-490.773193359375	502.6911010742188	689.7850952148438	-204.0252685546875	-249.3626708984375	312.6756896972656	-417.3416442871094	428.8739929199219	662.4667358398438	-191.958740234375	537.5264282226562	600.0980834960938	-236.6893615722656	460.5330505371094	568.041015625	-216.1132354736328	216.3943023681641	515.2807006835938	-504.8263244628906	511.6247863769531	514.070556640625	-227.3006134033203	106.1797714233398	474.4343872070312	-497.6087646484375	6.752424240112305	469.2559814453125	-473.8765258789062	553.7553100585938	399.8835144042969	-223.9497833251953	-256.8398132324219	389.1305847167969	-466.8504943847656	469.84033203125	383.5505981445312	-223.7350311279297	-188.4257507324219	543.88037109375	-341.9200744628906	567.2479248046875	297.8871765136719	-235.1565246582031	488.3554077148438	288.915283203125	-235.3988189697266	-163.4204406738281	505.6012878417969	-439.1180725097656	557.6671142578125	115.8586502075195	-253.9885406494141	765.4984130859375	139.7554321289062	-277.4709777832031	516.118408203125	69.4687728881836	-310.6673889160156	541.9225463867188	49.26162338256836	-340.2871704101562	524.7620849609375	45.6380615234375	-284.254638671875	-197.0243988037109	563.9461669921875	-393.8518371582031
